REM DIRINDEX 1\3,1\2\4,1\2\5,1\2\6
REM DIRNAME cjc137,folder01,folder02,folder03,folder04,folder05
TITLE ""
FILE "110.mp3" MP3
  TRACK 01 AUDIO
    TITLE "4:cjc137_4539"
    INDEX 01 00:00:00
  TRACK 02 AUDIO
    TITLE "0:"
    INDEX 01 00:01:28
  TRACK 03 AUDIO
    TITLE "6:cjc137_4540"
    INDEX 01 00:01:34
  TRACK 04 AUDIO
    TITLE "0:"
    INDEX 01 00:02:47
  TRACK 05 AUDIO
    TITLE "5:cjc137_4541"
    INDEX 01 00:02:55
  TRACK 06 AUDIO
    TITLE "0:"
    INDEX 01 00:04:07
  TRACK 07 AUDIO
    TITLE "4:cjc137_4542"
    INDEX 01 00:05:14
  TRACK 08 AUDIO
    TITLE "0:"
    INDEX 01 00:06:31
  TRACK 09 AUDIO
    TITLE "6:cjc137_4543"
    INDEX 01 00:06:33
  TRACK 10 AUDIO
    TITLE "0:"
    INDEX 01 00:07:39
  TRACK 11 AUDIO
    TITLE "5:cjc137_4544"
    INDEX 01 00:07:43
  TRACK 12 AUDIO
    TITLE "0:"
    INDEX 01 00:08:62
  TRACK 13 AUDIO
    TITLE "4:cjc137_4545"
    INDEX 01 00:09:67
  TRACK 14 AUDIO
    TITLE "0:"
    INDEX 01 00:11:11
  TRACK 15 AUDIO
    TITLE "6:cjc137_4546"
    INDEX 01 00:11:15
  TRACK 16 AUDIO
    TITLE "0:"
    INDEX 01 00:12:42
  TRACK 17 AUDIO
    TITLE "5:cjc137_4547"
    INDEX 01 00:12:48
  TRACK 18 AUDIO
    TITLE "0:"
    INDEX 01 00:13:69
  TRACK 19 AUDIO
    TITLE "4:cjc137_4548"
    INDEX 01 00:14:72
  TRACK 20 AUDIO
    TITLE "0:"
    INDEX 01 00:16:24
  TRACK 21 AUDIO
    TITLE "6:cjc137_4549"
    INDEX 01 00:16:28
  TRACK 22 AUDIO
    TITLE "0:"
    INDEX 01 00:17:37
  TRACK 23 AUDIO
    TITLE "5:cjc137_4550"
    INDEX 01 00:17:41
  TRACK 24 AUDIO
    TITLE "0:"
    INDEX 01 00:18:68
  TRACK 25 AUDIO
    TITLE "4:cjc137_4551"
    INDEX 01 00:20:00
  TRACK 26 AUDIO
    TITLE "0:"
    INDEX 01 00:21:11
  TRACK 27 AUDIO
    TITLE "6:cjc137_4552"
    INDEX 01 00:21:17
  TRACK 28 AUDIO
    TITLE "0:"
    INDEX 01 00:22:44
  TRACK 29 AUDIO
    TITLE "5:cjc137_4553"
    INDEX 01 00:22:50
  TRACK 30 AUDIO
    TITLE "0:"
    INDEX 01 00:23:61
  TRACK 31 AUDIO
    TITLE "4:cjc137_4554"
    INDEX 01 00:24:69
  TRACK 32 AUDIO
    TITLE "0:"
    INDEX 01 00:26:32
  TRACK 33 AUDIO
    TITLE "6:cjc137_4555"
    INDEX 01 00:26:34
  TRACK 34 AUDIO
    TITLE "0:"
    INDEX 01 00:27:63
  TRACK 35 AUDIO
    TITLE "5:cjc137_4556"
    INDEX 01 00:27:71
  TRACK 36 AUDIO
    TITLE "0:"
    INDEX 01 00:29:33
  TRACK 37 AUDIO
    TITLE "4:cjc137_4557"
    INDEX 01 00:30:38
  TRACK 38 AUDIO
    TITLE "0:"
    INDEX 01 00:31:67
  TRACK 39 AUDIO
    TITLE "6:cjc137_4558"
    INDEX 01 00:31:71
  TRACK 40 AUDIO
    TITLE "0:"
    INDEX 01 00:33:21
  TRACK 41 AUDIO
    TITLE "5:cjc137_4559"
    INDEX 01 00:33:26
  TRACK 42 AUDIO
    TITLE "0:"
    INDEX 01 00:34:55
  TRACK 43 AUDIO
    TITLE "4:cjc137_4560"
    INDEX 01 00:35:64
  TRACK 44 AUDIO
    TITLE "0:"
    INDEX 01 00:37:08
  TRACK 45 AUDIO
    TITLE "6:cjc137_4561"
    INDEX 01 00:37:14
  TRACK 46 AUDIO
    TITLE "0:"
    INDEX 01 00:38:31
  TRACK 47 AUDIO
    TITLE "5:cjc137_4562"
    INDEX 01 00:38:39
  TRACK 48 AUDIO
    TITLE "0:"
    INDEX 01 00:39:58
  TRACK 49 AUDIO
    TITLE "4:cjc137_4563"
    INDEX 01 00:40:68
  TRACK 50 AUDIO
    TITLE "0:"
    INDEX 01 00:42:00
  TRACK 51 AUDIO
    TITLE "6:cjc137_4564"
    INDEX 01 00:42:08
  TRACK 52 AUDIO
    TITLE "0:"
    INDEX 01 00:43:25
  TRACK 53 AUDIO
    TITLE "5:cjc137_4565"
    INDEX 01 00:43:33
  TRACK 54 AUDIO
    TITLE "0:"
    INDEX 01 00:44:42
  TRACK 55 AUDIO
    TITLE "4:cjc137_4566"
    INDEX 01 00:45:57
  TRACK 56 AUDIO
    TITLE "0:"
    INDEX 01 00:46:68
  TRACK 57 AUDIO
    TITLE "6:cjc137_4567"
    INDEX 01 00:46:74
  TRACK 58 AUDIO
    TITLE "0:"
    INDEX 01 00:47:70
  TRACK 59 AUDIO
    TITLE "5:cjc137_4568"
    INDEX 01 00:48:06
  TRACK 60 AUDIO
    TITLE "0:"
    INDEX 01 00:49:18
  TRACK 61 AUDIO
    TITLE "4:cjc137_4569"
    INDEX 01 00:50:31
  TRACK 62 AUDIO
    TITLE "0:"
    INDEX 01 00:51:44
  TRACK 63 AUDIO
    TITLE "6:cjc137_4570"
    INDEX 01 00:51:50
  TRACK 64 AUDIO
    TITLE "0:"
    INDEX 01 00:53:45
  TRACK 65 AUDIO
    TITLE "5:cjc137_4571"
    INDEX 01 00:53:53
  TRACK 66 AUDIO
    TITLE "0:"
    INDEX 01 00:54:66
  TRACK 67 AUDIO
    TITLE "4:cjc137_4572"
    INDEX 01 00:55:73
  TRACK 68 AUDIO
    TITLE "0:"
    INDEX 01 00:57:05
  TRACK 69 AUDIO
    TITLE "6:cjc137_4573"
    INDEX 01 00:57:11
  TRACK 70 AUDIO
    TITLE "0:"
    INDEX 01 00:58:34
  TRACK 71 AUDIO
    TITLE "5:cjc137_4574"
    INDEX 01 00:58:40
  TRACK 72 AUDIO
    TITLE "0:"
    INDEX 01 00:59:47
  TRACK 73 AUDIO
    TITLE "4:cjc137_4575"
    INDEX 01 01:00:57
  TRACK 74 AUDIO
    TITLE "0:"
    INDEX 01 01:02:14
  TRACK 75 AUDIO
    TITLE "6:cjc137_4576"
    INDEX 01 01:02:18
  TRACK 76 AUDIO
    TITLE "0:"
    INDEX 01 01:03:43
  TRACK 77 AUDIO
    TITLE "5:cjc137_4577"
    INDEX 01 01:03:47
  TRACK 78 AUDIO
    TITLE "0:"
    INDEX 01 01:05:05
  TRACK 79 AUDIO
    TITLE "4:cjc137_4578"
    INDEX 01 01:06:12
  TRACK 80 AUDIO
    TITLE "0:"
    INDEX 01 01:07:27
  TRACK 81 AUDIO
    TITLE "6:cjc137_4579"
    INDEX 01 01:07:33
  TRACK 82 AUDIO
    TITLE "0:"
    INDEX 01 01:08:66
  TRACK 83 AUDIO
    TITLE "5:cjc137_4580"
    INDEX 01 01:08:72
  TRACK 84 AUDIO
    TITLE "0:"
    INDEX 01 01:10:12
